<svg width="128" height="128" viewBox="0 0 128 128" fill="none" xmlns="http://www.w3.org/2000/svg">
<path d="M29.4091 57C29.0966 56.0436 28.6847 55.1866 28.1733 54.429C27.6714 53.6619 27.0701 53.0085 26.3693 52.4688C25.678 51.929 24.892 51.517 24.0114 51.233C23.1307 50.9489 22.1648 50.8068 21.1136 50.8068C19.3902 50.8068 17.8229 51.2519 16.4119 52.142C15.0009 53.0322 13.8788 54.3438 13.0455 56.0767C12.2121 57.8097 11.7955 59.9356 11.7955 62.4545C11.7955 64.9735 12.2169 67.0994 13.0597 68.8324C13.9025 70.5653 15.0436 71.8769 16.483 72.767C17.9223 73.6572 19.5417 74.1023 21.3409 74.1023C23.0076 74.1023 24.4754 73.7472 25.7443 73.0369C27.0227 72.3172 28.017 71.304 28.7273 69.9972C29.447 68.6809 29.8068 67.1326 29.8068 65.3523L30.8864 65.5795H22.1364V62.4545H33.2159V65.5795C33.2159 67.9754 32.7045 70.0587 31.6818 71.8295C30.6686 73.6004 29.267 74.9735 27.4773 75.9489C25.697 76.9148 23.6515 77.3977 21.3409 77.3977C18.7652 77.3977 16.5019 76.7917 14.5511 75.5795C12.6098 74.3674 11.0947 72.6439 10.0057 70.4091C8.92614 68.1742 8.38636 65.5227 8.38636 62.4545C8.38636 60.1534 8.69413 58.0843 9.30966 56.2472C9.93466 54.4006 10.8153 52.8286 11.9517 51.5312C13.0881 50.2339 14.4328 49.2396 15.9858 48.5483C17.5388 47.857 19.2481 47.5114 21.1136 47.5114C22.6477 47.5114 24.0777 47.7434 25.4034 48.2074C26.7386 48.6619 27.9271 49.3106 28.9688 50.1534C30.0199 50.9867 30.8958 51.9858 31.5966 53.1506C32.2973 54.3059 32.7803 55.589 33.0455 57H29.4091ZM47.6584 77.4545C45.6887 77.4545 43.9605 76.9858 42.4737 76.0483C40.9964 75.1108 39.8411 73.7992 39.0078 72.1136C38.1839 70.428 37.772 68.4583 37.772 66.2045C37.772 63.9318 38.1839 61.9479 39.0078 60.2528C39.8411 58.5578 40.9964 57.2415 42.4737 56.304C43.9605 55.3665 45.6887 54.8977 47.6584 54.8977C49.6281 54.8977 51.3516 55.3665 52.8288 56.304C54.3156 57.2415 55.4709 58.5578 56.2947 60.2528C57.1281 61.9479 57.5447 63.9318 57.5447 66.2045C57.5447 68.4583 57.1281 70.428 56.2947 72.1136C55.4709 73.7992 54.3156 75.1108 52.8288 76.0483C51.3516 76.9858 49.6281 77.4545 47.6584 77.4545ZM47.6584 74.4432C49.1546 74.4432 50.3857 74.0597 51.3516 73.2926C52.3175 72.5256 53.0324 71.517 53.4964 70.267C53.9605 69.017 54.1925 67.6629 54.1925 66.2045C54.1925 64.7462 53.9605 63.3873 53.4964 62.1278C53.0324 60.8684 52.3175 59.8504 51.3516 59.0739C50.3857 58.2973 49.1546 57.9091 47.6584 57.9091C46.1622 57.9091 44.9311 58.2973 43.9652 59.0739C42.9993 59.8504 42.2843 60.8684 41.8203 62.1278C41.3563 63.3873 41.1243 64.7462 41.1243 66.2045C41.1243 67.6629 41.3563 69.017 41.8203 70.267C42.2843 71.517 42.9993 72.5256 43.9652 73.2926C44.9311 74.0597 46.1622 74.4432 47.6584 74.4432Z" fill="white"/>
<path d="M29.4091 57C29.0966 56.0436 28.6847 55.1866 28.1733 54.429C27.6714 53.6619 27.0701 53.0085 26.3693 52.4688C25.678 51.929 24.892 51.517 24.0114 51.233C23.1307 50.9489 22.1648 50.8068 21.1136 50.8068C19.3902 50.8068 17.8229 51.2519 16.4119 52.142C15.0009 53.0322 13.8788 54.3438 13.0455 56.0767C12.2121 57.8097 11.7955 59.9356 11.7955 62.4545C11.7955 64.9735 12.2169 67.0994 13.0597 68.8324C13.9025 70.5653 15.0436 71.8769 16.483 72.767C17.9223 73.6572 19.5417 74.1023 21.3409 74.1023C23.0076 74.1023 24.4754 73.7472 25.7443 73.0369C27.0227 72.3172 28.017 71.304 28.7273 69.9972C29.447 68.6809 29.8068 67.1326 29.8068 65.3523L30.8864 65.5795H22.1364V62.4545H33.2159V65.5795C33.2159 67.9754 32.7045 70.0587 31.6818 71.8295C30.6686 73.6004 29.267 74.9735 27.4773 75.9489C25.697 76.9148 23.6515 77.3977 21.3409 77.3977C18.7652 77.3977 16.5019 76.7917 14.5511 75.5795C12.6098 74.3674 11.0947 72.6439 10.0057 70.4091C8.92614 68.1742 8.38636 65.5227 8.38636 62.4545C8.38636 60.1534 8.69413 58.0843 9.30966 56.2472C9.93466 54.4006 10.8153 52.8286 11.9517 51.5312C13.0881 50.2339 14.4328 49.2396 15.9858 48.5483C17.5388 47.857 19.2481 47.5114 21.1136 47.5114C22.6477 47.5114 24.0777 47.7434 25.4034 48.2074C26.7386 48.6619 27.9271 49.3106 28.9688 50.1534C30.0199 50.9867 30.8958 51.9858 31.5966 53.1506C32.2973 54.3059 32.7803 55.589 33.0455 57H29.4091ZM47.6584 77.4545C45.6887 77.4545 43.9605 76.9858 42.4737 76.0483C40.9964 75.1108 39.8411 73.7992 39.0078 72.1136C38.1839 70.428 37.772 68.4583 37.772 66.2045C37.772 63.9318 38.1839 61.9479 39.0078 60.2528C39.8411 58.5578 40.9964 57.2415 42.4737 56.304C43.9605 55.3665 45.6887 54.8977 47.6584 54.8977C49.6281 54.8977 51.3516 55.3665 52.8288 56.304C54.3156 57.2415 55.4709 58.5578 56.2947 60.2528C57.1281 61.9479 57.5447 63.9318 57.5447 66.2045C57.5447 68.4583 57.1281 70.428 56.2947 72.1136C55.4709 73.7992 54.3156 75.1108 52.8288 76.0483C51.3516 76.9858 49.6281 77.4545 47.6584 77.4545ZM47.6584 74.4432C49.1546 74.4432 50.3857 74.0597 51.3516 73.2926C52.3175 72.5256 53.0324 71.517 53.4964 70.267C53.9605 69.017 54.1925 67.6629 54.1925 66.2045C54.1925 64.7462 53.9605 63.3873 53.4964 62.1278C53.0324 60.8684 52.3175 59.8504 51.3516 59.0739C50.3857 58.2973 49.1546 57.9091 47.6584 57.9091C46.1622 57.9091 44.9311 58.2973 43.9652 59.0739C42.9993 59.8504 42.2843 60.8684 41.8203 62.1278C41.3563 63.3873 41.1243 64.7462 41.1243 66.2045C41.1243 67.6629 41.3563 69.017 41.8203 70.267C42.2843 71.517 42.9993 72.5256 43.9652 73.2926C44.9311 74.0597 46.1622 74.4432 47.6584 74.4432Z" fill="black" fill-opacity="0.2"/>
<path d="M62.6619 55.1818H66.0142V78.5909C66.0142 79.9356 65.7822 81.1004 65.3182 82.0852C64.8636 83.0701 64.1723 83.8324 63.2443 84.3722C62.3258 84.9119 61.1657 85.1818 59.7642 85.1818C59.6506 85.1818 59.5369 85.1818 59.4233 85.1818C59.3097 85.1818 59.196 85.1818 59.0824 85.1818V82.0568C59.196 82.0568 59.3002 82.0568 59.3949 82.0568C59.4896 82.0568 59.5938 82.0568 59.7074 82.0568C60.7301 82.0568 61.4782 81.7538 61.9517 81.1477C62.4252 80.5511 62.6619 79.6989 62.6619 78.5909V55.1818ZM64.3097 51.5455C63.6563 51.5455 63.0928 51.3229 62.6193 50.8778C62.1553 50.4328 61.9233 49.8977 61.9233 49.2727C61.9233 48.6477 62.1553 48.1127 62.6193 47.6676C63.0928 47.2225 63.6563 47 64.3097 47C64.9631 47 65.5218 47.2225 65.9858 47.6676C66.4593 48.1127 66.696 48.6477 66.696 49.2727C66.696 49.8977 66.4593 50.4328 65.9858 50.8778C65.5218 51.3229 64.9631 51.5455 64.3097 51.5455ZM81.0178 77.4545C79.0481 77.4545 77.3198 76.9858 75.8331 76.0483C74.3558 75.1108 73.2005 73.7992 72.3672 72.1136C71.5433 70.428 71.1314 68.4583 71.1314 66.2045C71.1314 63.9318 71.5433 61.9479 72.3672 60.2528C73.2005 58.5578 74.3558 57.2415 75.8331 56.304C77.3198 55.3665 79.0481 54.8977 81.0178 54.8977C82.9875 54.8977 84.7109 55.3665 86.1882 56.304C87.675 57.2415 88.8303 58.5578 89.6541 60.2528C90.4875 61.9479 90.9041 63.9318 90.9041 66.2045C90.9041 68.4583 90.4875 70.428 89.6541 72.1136C88.8303 73.7992 87.675 75.1108 86.1882 76.0483C84.7109 76.9858 82.9875 77.4545 81.0178 77.4545ZM81.0178 74.4432C82.514 74.4432 83.745 74.0597 84.7109 73.2926C85.6768 72.5256 86.3918 71.517 86.8558 70.267C87.3198 69.017 87.5518 67.6629 87.5518 66.2045C87.5518 64.7462 87.3198 63.3873 86.8558 62.1278C86.3918 60.8684 85.6768 59.8504 84.7109 59.0739C83.745 58.2973 82.514 57.9091 81.0178 57.9091C79.5215 57.9091 78.2905 58.2973 77.3246 59.0739C76.3587 59.8504 75.6437 60.8684 75.1797 62.1278C74.7157 63.3873 74.4837 64.7462 74.4837 66.2045C74.4837 67.6629 74.7157 69.017 75.1797 70.267C75.6437 71.517 76.3587 72.5256 77.3246 73.2926C78.2905 74.0597 79.5215 74.4432 81.0178 74.4432ZM96.4759 77V47.9091H99.8281V58.6477H100.112C100.358 58.2689 100.699 57.786 101.135 57.1989C101.58 56.6023 102.214 56.072 103.038 55.608C103.872 55.1345 104.999 54.8977 106.419 54.8977C108.256 54.8977 109.875 55.357 111.277 56.2756C112.679 57.1941 113.772 58.4962 114.558 60.1818C115.344 61.8674 115.737 63.8561 115.737 66.1477C115.737 68.4583 115.344 70.4612 114.558 72.1562C113.772 73.8419 112.683 75.1487 111.291 76.0767C109.899 76.9953 108.294 77.4545 106.476 77.4545C105.074 77.4545 103.952 77.2225 103.109 76.7585C102.267 76.285 101.618 75.75 101.163 75.1534C100.709 74.5473 100.358 74.0455 100.112 73.6477H99.7145V77H96.4759ZM99.7713 66.0909C99.7713 67.7386 100.013 69.1922 100.496 70.4517C100.979 71.7017 101.684 72.6818 102.612 73.392C103.54 74.0928 104.677 74.4432 106.021 74.4432C107.423 74.4432 108.592 74.0739 109.53 73.3352C110.477 72.5871 111.187 71.5833 111.661 70.3239C112.143 69.0549 112.385 67.6439 112.385 66.0909C112.385 64.5568 112.148 63.1742 111.675 61.9432C111.211 60.7027 110.505 59.7225 109.558 59.0028C108.621 58.2737 107.442 57.9091 106.021 57.9091C104.658 57.9091 103.512 58.2547 102.584 58.946C101.656 59.6278 100.955 60.5843 100.482 61.8153C100.008 63.0369 99.7713 64.4621 99.7713 66.0909Z" fill="#209CEE"/>
</svg>
